<svg class="icon" viewBox="0 0 1024 1024" version="1.1" xmlns="http://www.w3.org/2000/svg" width="128" height="128"><path d="M512.867457 0a512.574891 512.574891 0 0 1 451.13612 271.573997 511.550912 511.550912 0 0 1-26.842892 525.520918 476.881891 476.881891 0 0 1-29.40284 39.057505c-10.239795 12.141471-66.558669 131.800793 38.32609 186.510555 0 0-122.73126 14.774562-202.016531-53.905207a512.867457 512.867457 0 0 1-575.183925-76.944747 511.624053 511.624053 0 0 1-134.580165-563.92015A512.50175 512.50175 0 0 1 512.867457 0z m233.613613 586.374558a75.189353 75.189353 0 1 0 0-150.451848 75.189353 75.189353 0 0 0 0 150.451848z m-233.613613 0a75.189353 75.189353 0 1 0 0.073141-150.451848 75.189353 75.189353 0 0 0 0 150.451848z m-233.321048 0a75.189353 75.189353 0 1 0 0.073141-150.451848 75.189353 75.189353 0 0 0 0 150.451848z"></path></svg>
