<svg class="icon" viewBox="0 0 1175 1024" version="1.1" xmlns="http://www.w3.org/2000/svg" p-id="9172" width="200" height="200"><path d="M368.347741 231.456081A107.161814 107.161814 0 1 1 261.185926 124.294267a107.077832 107.077832 0 0 1 107.161815 107.161814" p-id="9173"></path><path d="M663.798573 321.989338a160.994669 160.994669 0 1 0-160.994669-160.994669 160.994669 160.994669 0 0 0 160.994669 160.994669zM1060.95235 491.046338l-95.152301 55.092594v-72.64496a108.085623 108.085623 0 0 0-108.00164-107.833675h-749.964734A108.085623 108.085623 0 0 0 0 473.493972v442.756336a108.085623 108.085623 0 0 0 107.833675 107.749692h749.628803a108.085623 108.085623 0 0 0 107.833676-107.833675v-35.692611l95.404248 55.092595a76.760108 76.760108 0 0 0 115.05618-66.51423v-311.575494a76.50816 76.50816 0 0 0-114.804232-66.346264z" p-id="9174"></path><path d="M645.322398 735.099811l-186.189453 107.581728a36.95235 36.95235 0 0 1-55.428524-31.997376V595.604691a36.95235 36.95235 0 0 1 55.428524-31.913393l186.189453 107.497745a36.95235 36.95235 0 0 1 0 63.994751z"></path></svg>
